<?xml version="1.0" encoding="UTF-8" standalone="no"?>
<!-- Created with Inkscape (http://www.inkscape.org/) -->

<svg
   width="132.29529mm"
   height="132.54849mm"
   viewBox="0 0 132.29529 132.54849"
   version="1.1"
   id="svg1"
   xml:space="preserve"
   sodipodi:docname="auspex.svg"
   inkscape:version="1.3.2 (091e20e, 2023-11-25, custom)"
   xmlns:inkscape="http://www.inkscape.org/namespaces/inkscape"
   xmlns:sodipodi="http://sodipodi.sourceforge.net/DTD/sodipodi-0.dtd"
   xmlns="http://www.w3.org/2000/svg"
   xmlns:svg="http://www.w3.org/2000/svg"><sodipodi:namedview
     id="namedview1"
     pagecolor="#ffffff"
     bordercolor="#000000"
     borderopacity="0.25"
     inkscape:showpageshadow="2"
     inkscape:pageopacity="0.0"
     inkscape:pagecheckerboard="0"
     inkscape:deskcolor="#d1d1d1"
     inkscape:document-units="mm"
     inkscape:zoom="0.73890575"
     inkscape:cx="230.74661"
     inkscape:cy="149.54546"
     inkscape:window-width="2560"
     inkscape:window-height="1369"
     inkscape:window-x="-8"
     inkscape:window-y="-8"
     inkscape:window-maximized="1"
     inkscape:current-layer="layer1" /><defs
     id="defs1" /><g
     inkscape:label="Ebene 1"
     inkscape:groupmode="layer"
     id="layer1"
     transform="translate(-46.443121,-82.22575)"><path
       id="path1"
       style="fill:#ffffff;stroke:none;stroke-width:0;stroke-dasharray:none;fill-opacity:1"
       d="m 112.52746,82.22575 -66.084339,66.33755 66.084339,66.21095 66.21095,-66.21095 z m -10.33477,41.01765 c -23.828576,21.48992 -7.113343,44.04033 10.33477,46.42973 17.44811,2.3894 37.40117,-16.64779 21.31446,-41.36544 9.25775,4.97975 16.82065,12.40777 23.04097,21.7749 -29.4073,38.58657 -60.013093,38.13157 -91.783544,-0.25321 9.287922,-12.59893 22.349421,-22.70568 37.093344,-26.58598 z m 12.80336,1.58337 c 11.34697,-1.2e-4 20.54559,9.18902 20.54551,20.52433 -2e-4,11.3351 -9.19874,20.52393 -20.54551,20.52381 -11.34658,-1.7e-4 -20.544803,-9.18891 -20.545003,-20.52381 -1e-5,-1.80437 0.23511,-3.55368 0.67282,-5.22087 a 11.298913,10.950768 0 0 1 -0.34726,-2.59364 11.298913,10.950768 0 0 1 11.299053,-10.95076 11.298913,10.950768 0 0 1 0.56741,0.0145 c 2.55283,-1.13675 5.37755,-1.77349 8.35298,-1.77353 z m 1.64434,8.83563 a 11.298913,10.950768 0 0 1 0.7338,3.87419 11.298913,10.950768 0 0 1 -11.29853,10.95075 11.298913,10.950768 0 0 1 -2.11047,-0.21704 c 1.21717,5.38371 5.7352,9.41016 11.52333,9.41028 6.79702,1.5e-4 12.26225,-5.14198 12.2623,-11.92692 2.3e-4,-6.57867 -4.63309,-11.78083 -11.11043,-12.09126 z" /></g></svg>
