<?xml version="1.0" encoding="UTF-8" standalone="no"?>
<!-- Created with Inkscape (http://www.inkscape.org/) -->

<svg
   width="158.75mm"
   height="326.23123mm"
   viewBox="0 0 158.75 326.23123"
   version="1.1"
   id="svg1"
   xml:space="preserve"
   inkscape:version="1.3.2 (091e20e, 2023-11-25, custom)"
   sodipodi:docname="malkavian.svg"
   xmlns:inkscape="http://www.inkscape.org/namespaces/inkscape"
   xmlns:sodipodi="http://sodipodi.sourceforge.net/DTD/sodipodi-0.dtd"
   xmlns="http://www.w3.org/2000/svg"
   xmlns:svg="http://www.w3.org/2000/svg"><sodipodi:namedview
     id="namedview1"
     pagecolor="#ffffff"
     bordercolor="#000000"
     borderopacity="0.25"
     inkscape:showpageshadow="2"
     inkscape:pageopacity="0.0"
     inkscape:pagecheckerboard="0"
     inkscape:deskcolor="#d1d1d1"
     inkscape:document-units="mm"
     inkscape:zoom="0.73890575"
     inkscape:cx="417.50927"
     inkscape:cy="631.33897"
     inkscape:window-width="2560"
     inkscape:window-height="1369"
     inkscape:window-x="-8"
     inkscape:window-y="-8"
     inkscape:window-maximized="1"
     inkscape:current-layer="layer1" /><defs
     id="defs1" /><g
     inkscape:label="Ebene 1"
     inkscape:groupmode="layer"
     id="layer1"
     transform="translate(-25.575183,14.615645)"><path
       id="path1"
       style="fill:#ffffff;fill-opacity:1;stroke-width:0;stroke:none"
       d="m 104.99979,-14.615645 c -33.348144,0 -79.424606,29.887849 -79.424607,95.891821 1e-6,42.974144 19.686569,73.908794 44.560588,89.125314 -4.469064,4.61302 -5.914011,9.93793 -2.278931,16.45791 4.019775,5.54289 9.251079,8.3535 16.130282,4.84156 l 2.933671,5.4653 -4.12533,2.09961 c 0.662769,2.67323 2.966509,4.93652 5.513875,7.13859 2.874233,3.97148 4.661167,9.57401 5.62653,16.40881 l -0.759643,34.43459 c -3.32813,4.89514 -6.130951,9.79036 -7.08949,14.68541 -0.73535,2.01388 -1.036079,5.33055 -0.759127,10.38128 0.55985,5.24691 14.892102,17.83697 19.622572,29.30105 5.11445,-12.28033 14.7773,-20.24308 19.11615,-29.80748 0.61788,-3.83502 0.13407,-7.30284 -0.75964,-10.63397 -0.67968,-3.66854 -2.81583,-8.37792 -6.83628,-14.43272 V 223.3197 c 0.8445,-8.36551 3.69189,-14.97873 8.35556,-20.00239 l 2.53215,-3.54501 -3.79822,-2.53214 3.03857,-5.31699 c 7.99284,3.0886 12.99942,-0.1274 16.71113,-6.07663 2.56824,-6.3257 1.24316,-11.50651 -4.30465,-15.44505 28.43308,-16.65132 45.32023,-50.36222 45.32023,-85.833525 -0.35868,-50.237312 -29.20932,-99.18361 -79.32539,-99.18361 z m -1.5043,11.206034 c 3.88224,-0.074146 8.02444,0.3230868 12.53205,1.3838949 -0.21163,8.5360716 -0.0379,17.0295751 0.82269,25.4465091 l 7.34271,19.306315 C 109.13255,30.227408 87.686486,5.8833804 85.759106,0 91.27661,-1.852887 97.025105,-3.2860344 103.49549,-3.409611 Z m 16.07654,2.0804932 c 24.96107,8.3744372 42.1347,27.0540248 50.38659,57.5386068 l -7.72253,1.709456 -6.52001,3.987871 -19.93935,-10.19111 -5.70612,-4.114477 c -4.40976,-9.631711 -7.80292,-18.24004 -9.86554,-25.509554 -0.65593,-7.806881 -0.82057,-15.6139109 -0.63304,-23.4207928 z M 82.267847,1.7905884 C 97.203494,22.150674 113.22609,38.569867 130.07061,52.010262 L 75.553528,75.553528 37.418905,79.94034 C 38.402273,44.38402 55.922509,12.73041 82.267847,1.7905884 Z M 170.80146,59.440299 c 3.12193,10.978384 3.91884,23.965088 1.79059,39.477694 -2.18133,15.842267 -7.33772,29.305257 -15.48691,40.373247 l -14.77068,-15.84503 -1.87947,-32.76389 c 4.27627,-8.662261 9.44993,-16.940128 15.397,-24.886336 l 7.07192,-4.386296 z m -41.84344,2.119768 c 5.32726,-0.02332 9.88802,0.719703 14.18208,1.72961 -3.88094,9.397938 -7.82677,18.785353 -23.36395,26.31829 -13.92023,5.481207 -26.188766,3.458397 -34.017044,-1.253153 2.748146,-6.310841 6.949608,-11.950787 12.800769,-16.829464 l 24.796935,-9.668144 c 1.96454,-0.196548 3.82545,-0.289365 5.60121,-0.297139 z M 69.466561,79.94034 41.088965,109.21297 C 39.105766,102.24738 37.733876,93.971977 37.418905,83.4316 Z m -1.343071,6.086967 3.133142,0.984953 27.750761,24.88582 C 89.530975,126.40992 81.210906,141.84736 74.121574,158.26889 59.441288,148.04262 48.579408,133.34246 42.252718,113.33055 49.917538,104.06978 59.07129,95.056856 68.12349,86.027307 Z m 69.13997,6.299874 c 0.22004,5.729298 1.22843,19.298829 1.99471,31.992359 -0.28919,13.0048 -2.91852,25.64992 -7.59592,37.9796 -15.35542,7.17173 -32.129829,10.2284 -54.183775,-2.02572 8.089152,-19.78778 18.584071,-38.86832 32.408875,-56.96913 z m 4.82502,35.864479 12.99456,14.10508 c -5.60997,7.58293 -11.97006,13.55064 -19.13165,17.79168 2.47737,-7.82373 5.66328,-19.90602 6.13709,-31.89676 z" /></g></svg>
