<?xml version="1.0" encoding="UTF-8" standalone="no"?>
<!-- Created with Inkscape (http://www.inkscape.org/) -->

<svg
   width="274.3396mm"
   height="274.24295mm"
   viewBox="0 0 274.3396 274.24295"
   version="1.1"
   id="svg1"
   xml:space="preserve"
   inkscape:version="1.3.2 (091e20e, 2023-11-25, custom)"
   sodipodi:docname="vehme2.svg"
   inkscape:export-filename="vehme2.png"
   inkscape:export-xdpi="92.585983"
   inkscape:export-ydpi="92.585983"
   xmlns:inkscape="http://www.inkscape.org/namespaces/inkscape"
   xmlns:sodipodi="http://sodipodi.sourceforge.net/DTD/sodipodi-0.dtd"
   xmlns="http://www.w3.org/2000/svg"
   xmlns:svg="http://www.w3.org/2000/svg"><sodipodi:namedview
     id="namedview1"
     pagecolor="#ffffff"
     bordercolor="#000000"
     borderopacity="0.25"
     inkscape:showpageshadow="2"
     inkscape:pageopacity="0.0"
     inkscape:pagecheckerboard="0"
     inkscape:deskcolor="#d1d1d1"
     inkscape:document-units="mm"
     inkscape:zoom="0.52248527"
     inkscape:cx="-295.70212"
     inkscape:cy="473.69757"
     inkscape:window-width="2560"
     inkscape:window-height="1369"
     inkscape:window-x="-8"
     inkscape:window-y="-8"
     inkscape:window-maximized="1"
     inkscape:current-layer="layer1" /><defs
     id="defs1" /><g
     inkscape:label="Ebene 1"
     inkscape:groupmode="layer"
     id="layer1"
     transform="translate(61.103812,-13.76343)"><path
       id="path1"
       style="fill:#000000;fill-opacity:1;stroke:none;stroke-width:0"
       d="m 75.803908,13.76345 -0.05804,0.384924 c -0.938701,0.04217 -5.857964,0.347726 -7.820967,2.583639 -1.385321,2.955885 2.642153,12.000901 3.586181,13.920636 -0.06323,0.03794 -0.127894,0.07247 -0.19047,0.111929 l -0.544604,22.401545 -0.02733,0.01584 c 0.0095,-8.78e-4 0.01822,-9.1e-4 0.02733,-0.0016 l -0.461958,19.004923 -0.01313,0.0071 c 0.0042,-4.07e-4 0.0085,-1.78e-4 0.01313,-5.46e-4 l -0.07118,2.919424 c 0.0095,0.004 0.01938,0.0069 0.02902,0.01091 -1.818267,0.08125 -3.946098,0.474272 -6.147191,1.045577 l 2.689085,-1.147678 c 0.173312,0.03019 0.346402,0.03026 0.526545,0.02458 0.172126,0.005 0.343849,0.0099 0.518327,0.0016 0.153982,-0.0053 0.300486,-0.0053 0.451556,-0.03166 0.153431,-0.0397 0.288825,-0.08972 0.442807,-0.09501 0.171564,-0.02943 0.337822,-0.06652 0.512861,-0.0404 l 0.981925,-0.734906 c -0.179741,4.33e-4 -0.354155,0.009 -0.538588,0.03604 -0.143465,0.021 -0.292448,0.0338 -0.440605,0.08136 -0.145805,0.03429 -0.294587,0.04743 -0.435689,0.05514 -0.129791,3.82e-4 -0.256097,0.0038 -0.381492,0.0043 l 1.506288,-0.64318 c -5.820194,0.0096 -11.630665,1.937583 -20.081965,8.127651 -0.601524,0.364986 -1.031663,0.679194 -1.224401,0.911263 -0.05878,0.04454 -0.114485,0.08391 -0.173502,0.128854 l 0.115481,-0.04914 c -0.05773,0.08955 -0.0824,0.167276 -0.05359,0.225495 l 5.293892,6.623441 c 4.438856,-5.289238 10.472674,-9.043774 15.701035,-8.847816 1.48232,5.309157 0.862123,7.587268 -0.653529,12.176735 l 0.0064,4.531195 h -0.06461 c 0.02097,0.0024 0.04353,0.0057 0.06461,0.0082 L 69.045177,215.2561 c -1.772014,-4.17914 -3.464621,-8.89829 -5.065091,-14.24549 -2.05622,-8.59102 -5.697139,-22.08804 -6.319063,-26.07281 -0.41439,-3.18845 -0.02997,-24.66666 -5.888299,-26.5025 -1.688582,-0.49257 -3.624989,-0.36611 -5.887747,0.57329 -1.295398,0.9464 -2.486615,2.20548 -3.590567,3.72477 l -6.605865,10.8871 c -0.862483,1.37082 -1.770276,1.972 -2.728497,1.71933 -0.960752,0.22565 -1.863377,-1.80539 -2.728497,-5.3005 -0.527901,-4.0728 -1.131099,-8.02939 -0.82593,-13.39485 0.678822,-7.34149 2.731642,-9.10862 2.979721,-16.97546 -0.234257,-4.66828 -4.147722,-11.8143 -8.04209,-13.75301 -2.782249,-0.62695 -5.403527,0.2458 -7.898678,2.29207 l -4.164721,9.92069 c -2.125702,3.56091 -4.0845423,5.04273 -5.1696411,4.83477 -1.355611,-0.37799 -2.481615,-4.13636 -2.0109303,-6.1599 0.9765551,-3.01206 3.3324783,-10.7266 3.5905557,-12.31978 0.375031,-2.95687 -0.2314711,-5.4477 -1.8669784,-7.44953 -2.3429695,-2.01952 -4.9353419,-3.85239 -8.0420897,-5.30049 -2.5784761,-1.13633 -4.8891303,-1.87217 -6.8932182,-2.149034 -1.90729,0.02535 -3.261397,0.3574 -4.308673,0.859394 -0.999899,0.86757 -1.824146,1.99816 -2.441144,3.43866 -0.718054,3.1039 -1.196873,6.92394 -1.436225,11.46039 -0.281919,1.44847 -0.63118,2.69471 -1.292272,3.00842 -0.385877,0.27487 -0.863309,0.18534 -1.723577,-1.43268 -2.045629,-4.10668 -4.416794,-8.21364 -7.03662,-12.32033 l -2.729048,-2.57818 c -2.932302,-2.225041 -6.308259,-3.501988 -9.909068,-4.298056 -2.297774,0.238765 -4.020759,0.620759 -5.169641,1.146039 -3.324831,2.163007 -6.057384,5.239267 -8.329442,9.025267 -0.728646,0.87911 -1.281819,2.22556 -1.723578,3.86781 -0.430838,1.38481 -0.478501,3.24728 -0.143401,5.58715 0.840696,2.48798 2.127482,5.05727 4.02077,7.73617 l 6.319052,6.87624 c 1.726395,1.8491 3.300238,4.35845 4.739438,7.44898 0.300942,0.8854 0.320833,2.21945 0.143401,3.86836 -0.904489,1.26168 -1.92,2.08008 -3.01585,2.57818 -3.380426,0.7024 -4.599468,0.38465 -8.186041,0.28664 -2.983122,1.06804 -5.679812,2.70666 -7.898138,5.3005 -2.102962,1.88137 -3.300311,4.76375 -2.729048,9.59856 0.718054,2.72187 2.393937,5.25271 5.026791,7.59258 1.682534,0.99573 3.87399,1.93907 5.820978,2.67099 3.19003,0.5483 11.094883,1.35779 14.858677,1.91316 3.143395,0.54237 5.358544,1.68019 6.606405,3.43812 0.40956,1.00279 0.803762,2.00563 0.286813,3.00842 -0.136315,0.98707 -1.56414,2.3422 -3.590016,3.86782 l -9.334913,4.72721 c -1.292495,0.73259 -2.584873,1.79348 -3.877357,3.86835 -0.82609,1.48006 -1.428726,3.13805 -1.579636,5.15691 -0.388536,1.21012 0.774126,3.38104 4.308133,7.01983 3.169726,2.34378 6.646187,4.33055 10.627175,5.7302 4.698522,1.27982 8.269896,1.33342 11.488693,1.00299 6.643021,-0.76062 13.1591007,-1.20427 19.53133417,-1.28964 2.98799363,0.69201 5.91622893,1.43483 7.18057123,3.58171 0.6657944,1.17982 -0.4486646,3.38384 -3.3032028,6.58959 -2.4391528,1.08362 -5.3905521,1.88338 -9.0475496,2.29208 -2.286611,0.92955 -4.219396,2.56477 -5.02624,6.44653 -0.534394,1.53097 -0.848183,3.42848 -0.574165,6.3035 1.263844,2.87518 3.6145878,4.72924 7.1800305,5.44355 3.54285063,1.14421 7.4015989,1.02903 11.2018914,1.14604 17.4260421,-1.12161 38.1087901,-6.95158 57.7313821,-6.12441 1.65112,0.10471 3.121577,0.2649 4.518304,0.451 l 0.0042,2.46406 c -1.217156,1.17114 -2.44949,2.24018 -3.69839,3.19515 -1.740036,-0.12908 -3.014123,-0.0259 -3.798545,0.3216 -1.479798,0.90215 -2.085686,1.82736 -2.436769,3.07448 0.259687,1.22851 1.84267,1.77378 4.873528,1.57246 0.907296,0.0138 1.697459,-2.2177 4.87408,-4.28932 0.06281,-0.0452 0.128096,-0.0836 0.191021,-0.12831 l 0.0126,9.53522 c 0.0095,17.71036 0.902032,24.65093 6.794705,36.38224 6.022242,-12.0182 6.774772,-19.3415 6.768417,-36.39261 l -0.01536,-10.93352 c 0.289354,0.19519 0.583158,0.37937 0.869187,0.58532 3.182531,2.07548 3.973848,4.31193 4.882828,4.29804 3.036525,0.2017 4.622664,-0.34492 4.882839,-1.57573 -0.35174,-1.24945 -0.959132,-2.17663 -2.441695,-3.08049 -0.785883,-0.34818 -2.062385,-0.45146 -3.805663,-0.32213 -1.418822,-1.08491 -2.816768,-2.31383 -4.194283,-3.67999 1.522621,-0.21695 3.142559,-0.39858 4.976428,-0.51488 19.586057,-0.82564 40.230527,4.99285 57.624107,6.11239 3.79321,-0.11681 7.64428,-0.002 11.18055,-1.14386 3.55879,-0.71298 5.90595,-2.56335 7.16743,-5.43317 0.27351,-2.86966 -0.0403,-4.7639 -0.57361,-6.29202 -0.80535,-3.87454 -2.73459,-5.50671 -5.01694,-6.43453 -3.65019,-0.40794 -6.59598,-1.20611 -9.03058,-2.28771 -2.84923,-3.19978 -3.96174,-5.39996 -3.29719,-6.57758 1.262,-2.14288 4.185,-2.88389 7.16744,-3.57462 6.36036,0.0852 12.86402,0.52771 19.49466,1.28692 3.2128,0.32981 6.77759,0.27662 11.46734,-1.00081 3.97359,-1.39704 7.44365,-3.38041 10.60749,-5.71983 3.52741,-3.63201 4.68827,-5.79832 4.30045,-7.00618 -0.15063,-2.01509 -0.75234,-3.67033 -1.57688,-5.14762 -1.29009,-2.07101 -2.58017,-3.12948 -3.87025,-3.86072 l -9.3174,-4.71901 c -2.0221,-1.52279 -3.44739,-2.87549 -3.58344,-3.86071 -0.51599,-1.00093 -0.12254,-2.00149 0.28626,-3.00242 1.24554,-1.75465 3.45627,-2.89075 6.59382,-3.43211 3.75679,-0.55435 11.64721,-1.36207 14.83131,-1.90935 1.94336,-0.73056 4.13064,-1.6722 5.81002,-2.66608 2.62795,-2.33551 4.30078,-4.86157 5.0175,-7.57838 0.57019,-4.8258 -0.62454,-7.70267 -2.72359,-9.58054 -2.21419,-2.58902 -4.90634,-4.22462 -7.8839,-5.29066 -3.5799,0.0978 -4.79659,0.41498 -8.17071,-0.28611 -1.09382,-0.49717 -2.10757,-1.31448 -3.01038,-2.57381 -0.17709,-1.64584 -0.15698,-2.97696 0.1434,-3.86072 1.43652,-3.08477 3.00752,-5.58968 4.73068,-7.43532 l 6.30701,-6.86369 c 1.88976,-2.67391 3.17451,-5.23807 4.01365,-7.72143 0.33447,-2.33549 0.28664,-4.19399 -0.1434,-5.57622 -0.44094,-1.6392 -0.993,-2.98324 -1.72029,-3.86072 -2.26782,-3.77896 -4.99494,-6.8499 -8.31357,-9.00888 -1.14674,-0.524302 -2.86739,-0.905544 -5.16088,-1.14386 -3.5941,0.794585 -6.96363,2.06897 -9.89046,4.28987 l -2.72357,2.57381 c -2.61495,4.09903 -4.98167,8.19836 -7.02349,12.2974 -0.85867,1.615 -1.33513,1.70376 -1.72029,1.42941 -0.65986,-0.31314 -1.0087,-1.55667 -1.29009,-3.00242 -0.23892,-4.52801 -0.71677,-8.34099 -1.43348,-11.4391 -0.61586,-1.43782 -1.43874,-2.56615 -2.43677,-3.43211 -1.04533,-0.50106 -2.39673,-0.83241 -4.30047,-0.85775 -2.00034,0.27635 -4.3064,1.01046 -6.88007,2.14466 -3.10095,1.44541 -5.68871,3.27491 -8.02731,5.29067 -1.63245,1.9981 -2.23803,4.48398 -1.8637,7.43533 0.2576,1.59022 2.60872,9.29095 3.58345,12.2974 0.46981,2.01976 -0.65347,5.77113 -2.00656,6.14843 -1.08307,0.20757 -3.03859,-1.27177 -5.16034,-4.82603 l -4.15705,-9.90159 c -2.49049,-2.04245 -5.10682,-2.91403 -7.88391,-2.28825 -3.8871,1.9351 -7.79349,9.06778 -8.02731,13.72735 0.24763,7.85219 2.29725,9.61653 2.9748,16.94435 0.30459,5.35546 -0.29737,9.30398 -0.82429,13.36918 -0.8635,3.4886 -1.76461,5.51589 -2.72357,5.29067 -0.95643,0.25219 -1.86269,-0.34724 -2.72357,-1.71551 l -6.59383,-10.86744 c -1.10188,-1.51647 -2.29047,-2.77305 -3.58344,-3.71766 -2.25857,-0.93765 -4.19191,-1.06385 -5.87735,-0.57221 -5.847495,1.83242 -5.463186,23.27086 -5.876802,26.45336 -0.620769,3.97734 -4.254634,17.44921 -6.307021,26.02421 -1.811626,6.05264 -3.745247,11.27734 -5.774999,15.84471 L 82.443349,97.504518 c 0.0053,-7.94e-4 0.0095,-0.0019 0.01472,-0.0027 h -0.01472 l -0.0064,-4.532288 c -1.553718,-4.703605 -2.051083,-7.12679 -0.689106,-12.09702 5.484405,-1.021443 11.791065,3.049238 15.391789,8.767554 l 5.891048,-6.169719 c 0.11314,-0.211027 -0.11308,-0.545885 -0.5572,-0.94839 L 86.15016,75.585067 c -1.618455,-0.341965 -3.170468,-0.555515 -4.540198,-0.555821 -3.520767,1.515077 -5.421088,1.843326 -8.362827,0.933648 3.293066,0.524627 6.321446,-0.299573 7.76786,-1.820886 l -0.07933,-5.08374 c 0.01335,-0.0094 0.02754,-0.01918 0.04046,-0.02839 l -0.04046,0.0093 -0.05963,-3.832871 c 0.07965,-0.04993 0.157139,-0.103786 0.233706,-0.158337 l -0.235347,0.0535 -0.05635,-3.604646 c 0.0042,-0.0026 0.0074,-0.005 0.01091,-0.0076 l -0.01091,0.0027 -0.120417,-7.749824 c 0.02563,-0.01943 0.05147,-0.03937 0.07668,-0.05733 l -0.07721,0.01965 -0.355224,-22.811585 c -0.0466,-0.03272 -0.09395,-0.05961 -0.140658,-0.09118 0.01885,-0.04188 0.04671,-0.108555 0.06736,-0.155062 0.04491,-0.03425 0.08844,-0.07131 0.129166,-0.107014 l -0.09363,0.02456 c 0.852071,-1.940271 2.957045,-7.302474 3.482732,-10.885462 0.147479,-0.812864 0.260938,-1.692203 0.336065,-2.687923 l -0.526535,-0.176355 c -2.07124,-2.398825 -7.159176,-2.704301 -7.685224,-2.674274 -0.01673,6.33e-4 -0.0788,0.0043 -0.105599,0.0055 9.5e-5,-0.12866 1.1e-5,-0.257241 -5.51e-4,-0.382195 z m 10.345309,61.82169 c 6.050023,1.278322 13.09752,4.500195 15.785323,6.492949 -8.845067,-6.588442 -14.830523,-8.625845 -20.811012,-8.628874 l 1.379294,0.585851 c -0.06556,-0.0056 -0.133201,-0.0056 -0.196487,-0.0131 -0.105387,-0.0061 -0.215583,-0.01986 -0.326224,-0.03385 -0.125872,-0.0032 -0.252168,-0.0063 -0.380942,-0.03058 L 81.09671,74.31516 c 0.1364,0.01884 0.275034,0.02443 0.413786,0.03003 0.09776,0.01156 0.201126,0.031 0.306513,0.03713 0.09776,0.01157 0.205426,0.0043 0.295561,0.02129 0.09543,0.02484 0.183025,0.05506 0.280787,0.06662 0.07721,0.01456 0.154352,0.02913 0.239192,0.03822 0.07721,0.01458 0.164637,0.01056 0.249583,0.01965 0.07732,0.01456 0.154618,0.02931 0.234267,0.03058 0.09543,0.02484 0.188056,0.02871 0.275861,0.05897 0.100727,0.03269 0.201264,0.06522 0.304321,0.08463 0.09543,0.02484 0.185175,0.04199 0.27531,0.05897 0.103057,0.01941 0.196296,0.0576 0.291727,0.08244 0.09829,0.04597 0.206708,0.07289 0.302139,0.09773 0.07118,0.01341 0.135447,0.03297 0.198139,0.05514 z m 15.785323,6.492949 c 0.0482,0.03591 0.0955,0.07083 0.14395,0.107014 -0.0454,-0.03495 -0.0957,-0.07124 -0.14395,-0.107014 z m 0.14395,0.107014 c 0.1554,0.119648 0.27373,0.227805 0.39409,0.336878 l 0.14231,0.0606 c -0.1825,-0.138477 -0.3563,-0.262796 -0.5364,-0.397482 z" /></g></svg>
